# xmcd
#
# Track frame offsets:
# 150
# 15359
# 36932
# 59766
# 81356
# 97248
# 111702
# 129719
# 147663
# 171131
# 188500
# 207670
# 224342
# 244637
# 265534
# 282683
# 303284
#
# Disc length: 4295 seconds
#
#
# Revision: 0
# Processed by: cddbd v1.5.1PL0 Copyright (c) Steve Scherf et al.
# Submitted via: FreeRIP 2.941 
#
DISCID=0e10c511
DTITLE=Msg - Meu Cd
DYEAR=0005
DGENRE=Dance
TTITLE0=1
TTITLE1=2
TTITLE2=5
TTITLE3=4
TTITLE4=7
TTITLE5=8
TTITLE6=9
TTITLE7=3
TTITLE8=12
TTITLE9=11
TTITLE10=455
TTITLE11=545
TTITLE12=545
TTITLE13=376
TTITLE14=57
TTITLE15=877
TTITLE16=78
EXTD=podre
EXTT0=
EXTT1=
EXTT2=
EXTT3=
EXTT4=
EXTT5=
EXTT6=
EXTT7=
EXTT8=
EXTT9=
EXTT10=
EXTT11=
EXTT12=
EXTT13=
EXTT14=
EXTT15=
EXTT16=
PLAYORDER=
